<mxfile host="app.diagrams.net" modified="2020-08-05T10:49:57.118Z" agent="5.0 (Windows NT 10.0; Win64; x64) AppleWebKit/537.36 (KHTML, like Gecko) Chrome/83.0.4103.61 Safari/537.36" etag="jlny4T_zwsCZE-x-Pbmt" version="13.6.0" type="github">
  <diagram id="Nd3cmyQKg_1bOQMpAypR" name="Page-1">
    <mxGraphModel dx="1422" dy="713" grid="1" gridSize="10" guides="1" tooltips="1" connect="1" arrows="1" fold="1" page="1" pageScale="1" pageWidth="827" pageHeight="1169" math="0" shadow="0">
      <root>
        <mxCell id="0" />
        <mxCell id="1" parent="0" />
        <mxCell id="5EDnqL9Ju0ff3urhfnd_-6" value="&lt;font style=&quot;font-size: 16px&quot;&gt;&lt;b&gt;Sleep-with-seizure&lt;/b&gt;&lt;/font&gt;" style="text;html=1;align=center;verticalAlign=middle;resizable=0;points=[];autosize=1;" vertex="1" parent="1">
          <mxGeometry x="505" y="285" width="160" height="20" as="geometry" />
        </mxCell>
        <mxCell id="5EDnqL9Ju0ff3urhfnd_-8" value="" style="rounded=0;whiteSpace=wrap;html=1;fillColor=#1ba1e2;strokeColor=#006EAF;fontColor=#ffffff;" vertex="1" parent="1">
          <mxGeometry x="80" y="340" width="80" height="30" as="geometry" />
        </mxCell>
        <mxCell id="5EDnqL9Ju0ff3urhfnd_-9" value="" style="rounded=0;whiteSpace=wrap;html=1;fillColor=#1ba1e2;strokeColor=#006EAF;fontColor=#ffffff;" vertex="1" parent="1">
          <mxGeometry x="160" y="340" width="80" height="30" as="geometry" />
        </mxCell>
        <mxCell id="5EDnqL9Ju0ff3urhfnd_-10" value="" style="rounded=0;whiteSpace=wrap;html=1;fillColor=#1ba1e2;strokeColor=#006EAF;fontColor=#ffffff;" vertex="1" parent="1">
          <mxGeometry x="240" y="340" width="80" height="30" as="geometry" />
        </mxCell>
        <mxCell id="5EDnqL9Ju0ff3urhfnd_-11" value="" style="rounded=0;whiteSpace=wrap;html=1;fillColor=#1ba1e2;strokeColor=#006EAF;fontColor=#ffffff;" vertex="1" parent="1">
          <mxGeometry x="320" y="340" width="80" height="30" as="geometry" />
        </mxCell>
        <mxCell id="5EDnqL9Ju0ff3urhfnd_-12" value="" style="rounded=0;whiteSpace=wrap;html=1;fillColor=#1ba1e2;strokeColor=#006EAF;fontColor=#ffffff;" vertex="1" parent="1">
          <mxGeometry x="400" y="340" width="80" height="30" as="geometry" />
        </mxCell>
        <mxCell id="5EDnqL9Ju0ff3urhfnd_-13" value="&lt;font style=&quot;font-size: 16px&quot;&gt;&lt;b&gt;Sleep-without-seizure&lt;/b&gt;&lt;/font&gt;" style="text;html=1;align=center;verticalAlign=middle;resizable=0;points=[];autosize=1;" vertex="1" parent="1">
          <mxGeometry x="505" y="345" width="180" height="20" as="geometry" />
        </mxCell>
        <mxCell id="5EDnqL9Ju0ff3urhfnd_-16" value="" style="shape=crossbar;whiteSpace=wrap;html=1;rounded=1;" vertex="1" parent="1">
          <mxGeometry x="80" y="230" width="320" height="20" as="geometry" />
        </mxCell>
        <mxCell id="5EDnqL9Ju0ff3urhfnd_-18" value="&lt;font style=&quot;font-size: 14px&quot;&gt;&lt;b&gt;1Hour&lt;/b&gt;&lt;/font&gt;" style="text;html=1;align=center;verticalAlign=middle;resizable=0;points=[];autosize=1;" vertex="1" parent="1">
          <mxGeometry x="210" y="200" width="60" height="20" as="geometry" />
        </mxCell>
        <mxCell id="5EDnqL9Ju0ff3urhfnd_-19" value="" style="shape=crossbar;whiteSpace=wrap;html=1;rounded=1;" vertex="1" parent="1">
          <mxGeometry x="400" y="230" width="80" height="20" as="geometry" />
        </mxCell>
        <mxCell id="5EDnqL9Ju0ff3urhfnd_-24" value="&lt;font style=&quot;font-size: 13px&quot;&gt;&lt;b&gt;30 Secs&lt;/b&gt;&lt;/font&gt;" style="text;html=1;align=center;verticalAlign=middle;resizable=0;points=[];autosize=1;" vertex="1" parent="1">
          <mxGeometry x="410" y="200" width="60" height="20" as="geometry" />
        </mxCell>
        <mxCell id="5EDnqL9Ju0ff3urhfnd_-27" value="" style="shape=image;verticalLabelPosition=bottom;labelBackgroundColor=#ffffff;verticalAlign=top;aspect=fixed;imageAspect=0;image=data:image/png,iVBORw0KGgoAAAANSUhEUgAAASwAAABkCAIAAACzY5qXAAAXAklEQVR4Xu2di3+U1ZnH+5+ctq7bWm23tt1a22q1l61dW6vrur1trbu2213XulV7AURUEBAFpBRUVFCQIoiICoRwv4VwDySAQILcwi0hkJBASMhl9vee37xPTs5cMvPOO/NOMuf7OR8+w3veeTPzvuc557mdZz4RczgckfIJ+4DD4SgsTggdjohxQuhwRIwTQocjYpwQOhwR44TQ4YgYJ4QOR8Q4IXQ4IsYJocMRMU4IHY6IcULocESME0KHI2KcEDocEeOE0OGIGCeEDkfEOCF0OCKmtIRwzpZjv5m9o/XKVbsjB1ouX121/+yVq912h8ORGaUlhOrPS9EmrThodwSlt7f3h1M34ZqQbbvP4ciMUhTCYYuq7Y6g7D3ZwmuiHTzTanc7HBlQQkKIVYvS8vg7e+y+oExccVCEcNLKQ3a3w5EBJSSEMNsoLY+8XWX3BeUnMypxwXumV+Dff315s93tcGRACQlhY2sHhfChubvsvkB0dfd87snluODyvWfw77Ujypx7xhGAEhLCjxvbKIT//vpWuy8QNfWeQXjDU+XdPb3/+OwqvN7ycZN9ksMxECUkhNX1zRTCH07dZPcF4vVNR3C1B2Ztw+v//dsuvP7L6lr7JIdjIEpICDfXnaMQ3jJhrd0XCBqE09fV4fWcyqN4/YvXwlljHUUIbI3Orh77aBiUkBDSckP7wtMr7L7saWqLW5gnzl/Gfw+eacXrz45cfrU7L8/JES0Xr1y9cfTKu6ZV9Pb22n05U0JCuHBnPcXmk8OW9vTkeiuXVJ/Cpb7/4gb+Fxf8h2dW4EjV8Qv9T3QMBSoPN3HwnL14xe7LmRISwjcqPBOOraU918y1R+fvxnXGLNkvR349eweOvLL+sHGWY4ggM3g+JtkSEsKpq2tFCKlDBgY65+efKsd1th05Lwdf2/gxjvznG9uNEx1DhBdXHeLIWVZz2u7LmRISwnHLPhIhrKlvsbuzoUL7eL40emW3odbS+8qIhXGuYyjw2II9HDmvbzpi9+VMCQnh8PdqRAg31Z6zu7Nhks5Wg0ZqHuzq7rl+lLc87j910TzuGAL82yueJxxt7LKP7L6cKSEhfHhelQjh0uqclIpfzdqGi8yuPGodv3+mdxzGp3XcMajp7e39ik7GUKEmHgslJIQPaMlh+9vW43Z3xuCRQBFVyWz0aWvrcPy/39ppHXcMFhpbOxKDELD8ZeTkw+YvISFkbP3vnyjDvy+tC+7DPNXcjitcM3xZYqbojqPe04KIJj5IR/Hz8vrDKllWIw1ChqDunl5h9eZOCQnhj6d5ex1umbAW/44vO2B3ZwyD/j+YstHuiMU6uro/M9ITcpxj9yUD8y402IU76+0OR8E503JFljtza2jz5U4+U6o535m03nhTOJSQEH7/xQ1KbzhSue3rfb78AK7wp4XJr/Dccq8XJkTiOpnIuLK4w3ZjbaPd5ygssFBECB9d0Odym7v1mNJZGdzA/dWxq4w3hUMJCeG3nvfWQGZa/8/c4GYb1BVc4a0tx+wODRbDm8etxgnvZrC+fX38Gj51fDa7z1FYYOwpXaaET+TjxjYeh4WP/05dXXus6RJeXPfk8v7vC4ESEsKbxnqyMWbJfvz789e22N2ZAWOPtkF1fbPd50O9RVoqcTX1H7RzbR32GY5CceFSJ4x8PIW6hlb6Dr74zAo8a8lG3HX8wvlLnXxSoceBS0IIYXSV1Zzm3Xx1g5fXcufUJBZdJlAnwXSIFc/u82lq6/jsSG+zr7TjTUkSdJbVnEbXHVM2Uk+G6NpnDFHWHDhbbOr36o/OKt/eE1/optpzmw97WRl43Fe7ezq7eni85XKuOY8WQ18IcStNefhgj5d4/Y3n1tjnZQZl+ME3B/BTQ1YfebsvLJnUDwS7FF1PfbCP+W7fnrjOPmMoMn973PQqKjmcvs5TXn43L173ZNT7e80xI6UY6FrPMecxkSEuhHjS5t1E266jCDeMKrdPzQwYkyqbCMfiqpP8u+2d3ZWHm+59afPmuniyDmslLq0+ffTcJbz4zMiyIR/YWHewQR5EYiQgr+DeQni6Umw0oykoyff1Fy5fq+WN7bBvH355jBcf/uh0yBlRQ1wIaVWbDU+CL4Jt/PuadrpkXsYCxgbr0EjSHHfiQ7e5doT3mGHuSwUqnGy/f6iA0X+DzulTej+n0hvKTjW3ywlnL3oW8hsVR3LfZZYU7rq+e3pF0uf+1bFeQsyOo33p+BO0lxtt7YEGOXjbC+tU/6z9UBisQoiJDaYFtD7c01TTG/jupPW8ldJgy/FFAEfI6RYvTP+pYUsvd3bZfamZscELAUv7nHavQYzxGjMrV78bdQrOEE46FY3glglrcefp/JjqVwPBlMQ7gAblvP9bQwA3mfKDtmKfHcKl/FuPFW+BbW/NCD/6q6e8wIA0D+bOYBXCySvjW0vY3tlxwj4jFmvr6MKdNU+7ZvgyHOcupLqGuI6ROQzT35EsTJ8eSf9VegXAxPH2Ns80+pVeFcHteohszXiBHXT815y4659ejUW7vO15EEh6GjGfyv35yrOr0ji9glF71qt7wGbGAAknCNmfnYafvboFZ76/+6TdkRvFLoSXOrpGL9lf4dtRBGrMp7VDWRpUncTViZ4P6zQcv1UHDE3dI0Ooovz53eRh+jQwnU3ayeZ2TiLDFtXwBHOKhUr2QvnBPGllIXLgzEUMyjFL9mfyUb85wYuIbj4cf46wkG/QU6HSBsIIrav/fv5uavtLqk/1f3eucDcgx8xNY1dbtvcfF3pZaeMy2B7BqWROiphTYIpdCKesiu/Enb+9L+UaY1Tp3BfcDtYaRLOSv8QpakbtvjzGS3e4S4/4VfuzVioYpp+7NcgzWL73NB4zk/F3Hrvwp4XeBCHV2WSKlWDU9uzniEIC1UPuKmYlLOxpiiBB5HjmecPoNTNU2DbWNj71wT6lPcbGuzMCf920SpjmIhvWmCaF2Y3uFksJun2ip4ZkMh6YRJq5Wy5D8i6EULEenleVVPeDbZDUSja5Wxe3VlqLgwUY07l8jMLJfCm7ntEm6h97edcvRvAvL3lVsflolR+Z+KXecJRUg00Dpk96FPgxgsEVb+X+s9z0tGB7/DPQO/fWlmPy4xZzEvZJFQzMd/dMr6hraE3lrU30Oau0cU5WwYIVYB3H95W3w0rEn8M0hNeYJa0z07PnRDOk686pG/mBRe/4uxHLqNli8lX6wXGyM++tzHqZeMU4kKAQ2R25kV8hhDLJb3jfy5VW1+HGNqgHGIvWcRPoOeJSU75Tm4E+GFEyROjiT9roXObKifZdHY1lBC9bBwCzlq4dUZZmyh8QbkTEKP+nyV6AfsOheKwMhorSLnKxjp5YHNdUC8yVq92MhikdpJaAivChvv9s+0610MWC9vXxKUOvK/Z5tnTScq819S2QENhj9JTWX/B81xgYmc90mCzk85xp8aowPbvUS4pigzWIcQJpVNoK+OsaT7GCVilvxwKoMg7ScjP3yMV77Y7cyK8Q8u6zWXkGrJyr0iYB8f5i3eNUqvSwoEVnbXDeduT8Qzop1GwSz+EWFeWPA4ZiIZnmFQZkabWX4PKjLCdpCwrb9HV1dA5hiPA4PxKWcTps0O7Va3hewf2BMbb7RL/8O9NHonS1DjM2vf5Q3xp45NylmE4PktB2qh9+ZDYCHpDdoYE2ZC651PnZMgkG/HSGt7ix0b0M9UeOlO87c7kzvhK0dXThy+LF9aPKxfczvixdOr4FHd2/719RIXfyK4SYzuV2WLt7ZHWiGoA1M1E1pWbPVdR0MKoUkbo2f+FFM9crUXt4KTpFMP763pkB3B4hrpRgcJKmH0IZo5Y7M6DtiA0MFSDN9BQKjN98bVw/RwUneyjeEC1W61B6cOMcPKDv+CEf3GrjSvE4G2xdOQKdEKs9XU1YOlTGWlzDxSvfm9wXWEofGWekRxpsH1iGNPyYCwH7jYGla4Yv69W5oDTLRQe5V0us2AXpmaenyAHzpbIlj0KIL8xdAvzXWsSlcg40ENzoTw1b+s0Ja2DBm+cwsZ1mHlZFScjEDU0VG4Ts4WrW8KWlgfYfelv0LF37MNXEnApakqmysTMEYwIX4c5GBgzN44+/s0fkky3DgZse6CO4kxiL5kEpXqyMjJCYvxDRAcgf20hsiXlbP3/NW47EN4Y30vlJdzRvnelaSw9U4mc+jKuUtxl2RyJ0gD86f/dd+pbC2GYyBqwGzvLD36vBeFB6p7X5liff90YjFgCmTHBVHxCq4ve9YttWOZJHIaQSiKFGNwmmN7NXVrZDZ1vf3OxlM6j+YdBu3yA09ytgSoZtna1Phem5aP+nfxTtvSrv82Rbsp7GfWJJi6ygU5G+ctMOmaPX6t/O2fngm/F4mjTTozggGIKNrR3WDMXrSGIkkWq2bBzomDepJ4tJ9oqvyUvD3TOvQ6AgKP8nkJfv9fR2aTE/0QR/0X5bWuoa4j/gk2qHdPPlTpqvMFw5d2CksRDe7RPXMUn1/pnbuFre/sI6vksGw+Kqk0xj+ue/xD06A4KL3zxudejlS0IWQljGL646hK+EgcBEu5mbjog+YA6ObzwX30q36/gFanqqv286xAqCW32lhavxWp3BiFtvn5caWTcSo5FZIZ9E9Z8FGC/GEYZPpq2tM00j6D9Q0nBXMQgw8k42t+8xDDkcxyzGLVpsprtLvH9o0Pkh7bgCji8wYgxKj+OY9pYpXQHENA1wPnMJVOrVjBPuI29XMftEGpQX8YtA5bHfNhBcYDExmQehCc+pPIp7dZ3OB/zBFE+EmJ84u/IoTQ+oPJRGzHRMsZCyFJIkKA2zhnn9whOmEOLrcblQeogrbW/gcWJ+FfcUz4Q0cvuW0sEcVrNWvveS0HNDBTJHsH7y+tTusJqptN68RCg8gfdeCA3GGDXrdtFHBwnkpkfK2JP9c/mtduvzazH4rL2L0qRAA69stuHaGOa+AalAx58Zps6S6BPCQ0y6G0so09uyoGb/4Z24lfH0h/v44oI/CwTIgxGH3CHfg8UUULOt1PG9x/XfxZfiZARtVtLiuSRKchKQz8aWSbJBXglTCGO+bSONv1gU83e1My0LQ+fbOjzKhomK0Rs2epkBvZ1pok+Zc85fx5iseEQ/nuuz2Ugh86vdkSX47tx3r3xbl+w8Fp8XqKnSfuPnzKpxk4cyvMdYRRNPi/kDcXzZAQ5r5pHQg2LW9s+Qfac86xHrHk0s6Bqy4NCwzOpum9B7xCwlzAXWF8HaS02SEbznyw/w++JLQeY/qZMWWUPE/HlmvAUiinkHn6ohD78tkS0hC2FnVw8j2kpvFxBHC5QH5Vd84JOWtmhXvSmTYtwzFGElrAWj1/+1+uf0Sihzc6I/NhV8xplkNg2IZFGamTeMj7ExuZTHMUmfam6Hsnffy5Uw6hjrtxqMbZhwWBB4r6jZ3jXN077wdno4sfizrofSFikeE/8LdUPSA/Dt6FEMkDVm+qUxlfRqmLjL0M6tQet3MPMJsg1pEXNu25HzuL5pp4h7mWOJmxXps6ViP0p7YoqTkIVQ4PwkYCbDjYC5KL9ZjUbfDKwUDhSq9fSdYJTwEYb1Izj8i0xNwsPjf5sy3khB4yRbh1BSRvvGm+mFkr0dSm+tME7vB9R4SBpuTq+fvgOV1brVrMgISYMFGE8weKKsSxsFWGB5q3efaObNf3/3yR7/bnxp9EraCAGMt5i/1w7tjwvjajb9anTtBK4UiG9HZ7K0pAs1tevHFuzhUkz/LQOGLBJLp1Fxki8htOCG9N/O2cm4rdIWAiPXE3VgSumNW3xRe7aVIwmWpDXCAlPX0IYlQq5GH6DpmkfXe1X1Zq07E2aoWnHtYDBAohI2LslenqTFFJNCF0sidHphNWCyhHlBznRQ8hnxoz9G9lgqnV4b7J7f4ycYfrAnvpByIWKs2HKuZIWVP2DFWshsrVQzFqL0Fmoc/J1Rcz3bBKlCUiAhpEMcigoGhPKT96iXPjTX04swa2JK5kDEabTIJbYTOqw+agaXmQuCj5EYgWy5fJUP0opQB6PczyKyRIiVZlR/F0Iw6KV4eF4V3c7m5h06cqBusOIOHR6QOtlIHlhamHqijCRM+lQpGBmmpKSCCx0+ZKpf8pEwmPLj8jFjY65KyO8vKgokhBevxMcxbyWfEx/bHVosWWNHXHkMr+evECCNK0yxckRKgCaWUWNC8M3jVlvHg9F65eqdUzdaUbuYn1aqch6vMR3dMTdSmpE9ro2y11mCkLLndVbQH9Joab/6kxmVZjUdfE2lA3TKt8ZzoS1ZTpXAOAQV4Bv9udvcqEEnanFSICGM+fOiMuZa/mAg461Sg5C+AW7xyjFRMw001hft6hudXJBVsimTyUq/TJtrnjuy+9H0mgZmrPE7cGYNAdMDhDsv3nkavUqHbeXkHLlPm520M/OtDZrlvMQJZGa6FvPWsMIJoZRVhW3GIzP9HG5lqEyMTHClClwddEAYH5tp/NYchV8lc4EyhWp0Mn9AiDDBX4W0Z7ShNR6QTIxt0lTjTZaDoghcCkPlJrK2qxR5NiHC2C+bbNdg7gFb+jhntBROCJmbJhUNYkb1O2WoK5zC6eMKPT9IoDnKCDWhjaT8Qkwm3K2TKlkkLKQKS3lCEZRgYJ3H3U50dcomA3M3QGNrx09nbJls3JDcEeVCGQnTecIsYPGzV+Nzt5kck8mvEkRF4YQQd2Hu1mNSXTzWf2ea/ACquE+V4ewOHbpkJXYkkUOVkEkDO4S/ByLbjvKE1Jyta8jvHxIFJBQ/UxpM52Tm+wODQXc6m7ldkEe++MwK49yio3BCmIjEJJSho3LPLlvSiFAoUNQli4JzNnMRVX+VjDvQvvD0inwnN7V3dsOY+d7k9bnnyqYHX2TtwYZ8S2Cs/+6zfCemtLT3ef7+YOQDciJItPOLiiiF0MxmlnrM5g6xKaviJVhCZ6H2aDPRWfI5f/HaVua+munRIaawDkhnV0++JbCQMFGeLd9TWJeR0QYbXo5DkTGVr+IkSiGUhCmlCyXwoGlMB3aXDwhjIfRMiNjvPHaBWaxmZgynUqmQ6ciKJdWeXpOYEZ4PaDWghWvZFoAohdBMUJa8bVOvyJ8WsUcrmTeN9UJ/3OPHAjbMEeVUCsX4wTe3M/SUb7/CEKamviVEj2saJG8uFPdyIYlSCM19PbLPpdfffqaSFUsOC257+/TwZVD/WKyNPxtKF+WPp1WY6o1KyG5xFCHM+FfFHZdPSpRCKKn3LIwtcE+dSlFIJhRExs61dbCiBMMVUlJt57G+cr35S9xxhAgzIlWynKciJ0ohlPx9a7MZNwSrhBTncJHkyXhZZZ3OinWY+auSWqCSFU53FCEsSoDW2Jrp5pgiIUohjPlhHBbGFiQXPjHQHCKsu1x5uInp/1LjQPaGSxt0NkZpwhL6yq+XM4goCiG0UqukgujFFHUsQ4Gl0ZdWn+aOCvlpCtNdBE31icU1AeoyOAoPk28t02ZQUBRCaNU/luTjvAaXRAtlJUVYg9LF0g8PzNo26ObUUqbh4pXHFuyRWNcgImIhpAFm/QDI8abLN41dPa7MTqQOF5a7E4E33eiQvdqzXuVA43SHI19ELIQwyR6dvzsSS5rpo7Q/rzPq8DocBSZiIYwQlplgmsVtfmVYh6PwlK4QSm18tF/PDljTweHIndIVQnMv9qDLsXAMJUpXCA+ciZflZtaowxEVpSuEUurz1Q35LX/icKSndIUwpn+L7/6Z21xytiNaSloIHY5iwAmhwxExTggdjohxQuhwRIwTQocjYpwQOhwR44TQ4YgYJ4QOR8Q4IXQ4IsYJocMRMU4IHY6IcULocESME0KHI2KcEDocEeOE0OGIGCeEDkfEOCF0OCLm/wF0WmtuceqexAAAAABJRU5ErkJggg==;dashed=1;imageBorder=#000000;" vertex="1" parent="1">
          <mxGeometry x="80" y="145" width="160" height="53.33" as="geometry" />
        </mxCell>
        <mxCell id="5EDnqL9Ju0ff3urhfnd_-28" value="" style="shape=image;verticalLabelPosition=bottom;labelBackgroundColor=#ffffff;verticalAlign=top;aspect=fixed;imageAspect=0;image=data:image/png,iVBORw0KGgoAAAANSUhEUgAAASwAAABkCAIAAACzY5qXAAAYTklEQVR4Xu2diZcc1XXG/Z+8QJAT28R2TCAxwdiyjU2MA068xI7j2A4xBmxsEzuxkBCbEEJICBD7DkIIBMasMyNptO8bElpH+y6NlhGSRiNpNIs6X72v687t193V1d3Vqpme9zvv6LSqqnu6q+q+d/f6RMbj8aTKJ9wNHo/n/OKF0ONJGS+EHk/KeCH0eFLGC6HHkzJeCD2elPFC6PGkjBdCjydlvBB6PCnjhdDjSRkvhB5Pyngh9HhSxguhx5MyXgg9npTxQujxpIwXQo8nZbwQJsD8LYevfXTBoq1H3B0eTwy8ECbAPz083/zxgysfmO3u8Hhi4IUwASCBHO4OjycGXggTQISwo7P7xJkud7fHE4kXwgQQIbxi7KzLRjef6epxj/B4ilMTITxw/PSo9zccOnHG3VGnXDS8QeQQY92+4+4RnrTZfvjkhBmb9xw95e7oB9RECC8fMwv34q+nrHJ31CmfuWOaFsKFFblJcX9MX9/a23vO3eGpmuOnuy4Z1cyr09nd7/SU5IXw9Nke/tq/u7fZ3VenfHJEoxbC9z7a7x4Rg6Hj5uC9k5bscnd4qqO7p/d7Ty6SqzOr5aB7RNokL4SbD7bz114yaoa7rx7p6T2nJTAQpMU73YNKAdWd7732sYXuPk91/N+ba/TVue3Pa90jFLDnx0/fNHfzYXdHLUleCGduPCg/+HB7p7u77ujo7HaE8LHZW92DSvH+mv1874W3NUB3cnd7KgVC9Ve3Z/WUFxfuwL9/c+c0nGGo/bAaXl6889y5HP0fdiOOgX2By6q315TkhZA/lWPBlkqso4HFkZOdjhDe17jRPagUN0/+UN7euPaAu9tTKVwGLx8zC0opBNK5Uhg6zwkCSXeGOb/eteSF8L6GjfILn52/3d1dd+w5esq5rsPeilJ4CvL3o2fijd+euAD/XjVh7sFB41iuKWIZPbdgB7dgGXQulr5Ltx8+KRvfWb2v74NqTPJCCJ0bv+EvhgW/5NbXV7u7646NB044F/XmVz90D4pki71XhgxvXLX7Y37C79/4yD3IUz6vL9+Nk3n1w/PF53y046xzsTiolM7ZdEi23Pnuer4Fk+yh9trOickL4W9eW4Xf8B/PLcW//3j/LNk+e9MhbHxy7ra9H/fHWI3Q0noCyiGUTHdHEVbuOupc0Z88v8w9KJKHm7fgXT99IXgXVFm8/saEee5BnvKhLjrq/Q3O9klLdvFKUQHBaD0eiNl7H2Utc4yf2cuxfv/xISMaPzWyCVOt8yEJkrwQXv/SCvyGZ+Zt54/5uOMsNu440iE/7+sPznXf0z/AV/3WI0EqNsaPn12K2ZFfPpp5mw/zRz04fdOjswJxuq5MDyemKrzr7VWB/rP/2Gm8/svbGvphOGvAccXY4MRi9ne29/See2Tmltkth7BCXvnAbBwzfX0rtr+6NFg5Pz2yCf8OHT9n6vI9ctNCnp0PSZDkhfCHTy8xVqXmKVi6vQ0bcY/K78Hohw7AU2ddJydt9A/WFHaTnOzs/sXLKzDXNK07gMO++8QibFyyvc3Y6+ceXRyoOsZq7yetOw6ST7tlw/4aTr2DgdlWtyzpbf7d66t5uacs2w01DS++/9RiY60DfTN886Ea6ibJC+G1jwbeheYNB69/aTlevLBwhzjxf2s1VYw/r9rrvi1t7nl/g5zxr+VOGaMbNuYviZw1MV5atBP//qdVQSE5JgiQlpGlMGNDENG5akKfdsCb4I0Ve85296oDBzU4FcPeWvvEnG1bD7XHPC1/eOMjnMb/fbOEdb1NOWPoo7797XXQRPQNgAGltLsn1t+tgOSF8Kvjg8yPxdvaHmoOQi63Tl390Z5jJkygueOddXh913tZq7efcPxUF881zDnoKk/ZGVGPf7hvphNQ+tcnskkYv7cX+6bJK7ER5i4vmD4yGhqBf/xTn7Zz93t908H8LeVFjbGe98/0yCqBYiXn5MZXVvbESO6jkp+vi+bzubun85O5+sGs+LLVUTk+c8c0Rhq3Hz7pvjMhkhdC3K/4xmv2HmPUHnM8JnW8+NEzS7D3zZV78foHTy1235Yq0Dl5xlkAQRUR4+XFwSrHofVDSc0zNsfFhP7ME2eywhy/kIImtE6yabZrowwsuX1Hl+KaiYFNu/VQrW6XtIAJp8+JyS3dbD/TRRfLvmOnuQULprG6KJX8aA4cPy1TqrHuDLoVOTCp8azCboROdMOkFTGX4vgkL4QXW5MGqzxTsS4YFqzveIE1MGPdTXiNY5yFJUEgAHFOveZXrwZ6SMH1GbY7C+efD2NNAMu7XCTOo/x1OJixmfipQjA2TO6EnZ8Hh7lZvSMKHl9Byk4/B1qlc07W7u0Lpt/f1CLbV+w8ii2Pz9lqrIu+7yMiWbDliHzC68t3j3g7CLNhDB03JxPajbg9uBFanvv+6khYCCFaF1p9mj7fy0ZnU9cxXrGpyZ3dPTwA04/75iSAGOC2/uxd0+PHGPCdL7ZlEMvt9cuH9roEHrp6euVHyRjT2MK9Mgf1vb848qcxc+vtq3Z/fOe72UturLO0K55BwuMfnLHZ3VEdmBdqN2nG4d+fDbx93564gAq/URkRuOKwdORcXTJqRkdnN9Me4mfDd6tr2rD2wKyWrDJClQ2TmgkddaYGKU0JC6FkBrXbAnP6Zoz1/sl9OdQajfMqypHF50cX+0gmdNO6wOkch31hVKCYmgHtDgdcNLyBP0pCunp6hr7Eg3mpIEU5H1EEsUWh37r7rFaMs8Q6qTjlUbKE3pMXGasGKC9/fXuTBK9TgQbesh3BLAm1kD+TnhIGdfQYaf0OuF5H89xpEfyzdSgaa4eLq5xCKH+RA+aV++bqSFgID4YqKEWFYWgTamvkl5NWmjIz2iB7MNvokMSHRzidN7VmM5VeWNinPUZDGyzaB806I9YoMQQMHZvJvhzyc662umvMNPx1+wLlPLrchF4+7bkphliqI9XZrh6mQBkr21OX991/mBeKxW+SRdJceN0lWZeGNCQTr780djZuubFKL42vixKeZxMqunyNFTiTG+U25dxaMUlYCJmtBzOJ/6Vf1OR6lmDhYMu3HpkvWzTQBPJzZ2lV6lHM9wB9nQfk50kUg0b/7yIz7OjDvO6xhaKLQswgePJ9Ji/Naj4/sAGGmCWFWK5NqfIlxrtMjFw2WVejq3XKAlqo/EYO+pw+DgUj/2IlzuyW4Azo6Cvn8asmzIXgXWcdYwwR8UiOKcvKcGiBp+dlXeLsCPH8gh0wapgoAxVjiCoZfXRWVutJioSFEGaxyW3+987qfXr6zIQrDzScY6dcbYHBbmOnMTFC8u8DjoJ6KfR17mXMwOHEma4fP7v0oeYck+m/Xw78k9Ers+Sm3RrGdqGxvLYsGyo0KvLJT4vp0qQYR+eaQkmWvxJtaooqXlJc47M6nEZl4BKv2Xvs+08Gcw2H9pHUAmocOg8Z082nbF6LqFp0m8EalALrgrdHBDLZFYx/0DnHcX9T1v5PioSFkGEJmMXuDgWE6os2jPFu7nIBFf8rVuuT8dTcbTgju9v6yhQgPzLb3fhKATGTGPo1EwustLhU3LtyV5/NRituic3sKYbjsbxh0oqMKgI0ygT9n6mBVvPk3G057y8CvS8lS59E8l+LnN2lnuPmyVFSXRaSZhk94odkKgCrnLHhIr3xQWUL6C+waOsRzPvlSmDGOnjGT9/01oeF00heUeehoBe9GhIWwns/CALNsHHdHbmMsukpTskPVT5nPDCthSl8l41uhoJBJ6Fkt2hZInRkYWCmzHfo/cReTg4mZ54Ms3nyl2UHHS/miiRzp1F+JobaHbmCVfPzF5czO1STDRKWcuLhDvvZC8E3j/aO0IFkwuTjRBjTGFhZMOnx4ZxfZGifZLm6X3xwERkEgmmjtx843uePial3VANEFCYo1ZwKStWiSVgIeVI+H9qExWCulpPJ/bf3zDChgfQL+2v10Dbe4fasaT7sLdddwVmAw4mCYDXTHZkYUKL+HKcdDu4GSDhsA7nhltv36k/LhBEq3K9971TzC5RYvT0/SFgMJjz88OnAT1AMJs2ZRHMhfj0lyDSEvYTXDaGqb2xzR0jFvmOnJaTmvjMhWOM3ZHhjvu/6Q1v5BcHI31UjmEp169Qo90EFJCyE1K9KFkTmRwWg5V9gw9z7w6SHXW0dl4wKxJLDCc5IEw1ngmQSGQeO0bv4R3E5OZ9BWjKh/7agZlsSuemN8k9MtdJCP4HAdFCTK2/FgoQFYZLDp0c2RWQwSjlitDlQFv/yeOD2oBdUzX19SwHz1035NlhMWBP4vSeD/PjUYZ5wgto+SVgIoTjhdsnXAx1wwGfvytExeC2/mlt/wOQjY3VLJ4UayiTVIfFqQGiXbm9jEhmtc6f8hPGAS+9tpjsE+iE2sg+X+DbLQhurWw5mBYkmK+x4OQznhPkJGFioZXt0kNABtzhLbDa1FpXYpaFbyzmN1cB0i9XhZbrFLozaAoSBwJTLGuWsMpl+eHL+3mqgK+6/7J2TIAkLYXyYnod5Dq9hDfPu0eFE0tHZfX9TS8E8ZpjgRgXZpBQQdzz73Hw59wktTE36xoR5a/YGHr+g4c+pLopHZTeQLtOWTxBRl8NkgTK50QgubtFBQg0dkhHzBSsbjU03d/dVBPSUOFl4TK0sGMLGJzw6a0vFYQxJZInp6Ko1sOqNrTV1d1RHakLIcgr8HszxonbGsY4EWUk4MfO1sQ76NhvPxQ2kbTDWTcNewqXlqsIIIfMDK0DnOkkHBKYrXKgSzZgFzopKXa07zeZhRAcJNeOmBfFVU3wxlMxvmL7uvoqAcmGsWhGt2tB5U7DslcE3ZzaMj0SGzmfvswh07WiCpCaEk8ICBbHiys3zwJ3BYNGOIx06lrhoW5DhRXVX36/8i7+cFJh/XIcZga0mtM0vYFSZcm/o/mlpzVZdMBVj/PRNTCuVRgnP2XhJdJBQgw/k3yqW3KNDJvnBLkwZMRNQBeoaJScpyepyd2QytA5M2MSlXOjlqsxirwXQoWAQJp6am5oQ0k0io9y+LIQGw8KtRyTZ75l52Zg7HY9z1NLKdY/5XxLkNWFficr4gvXomtzm6rQzJXzPOC/WPWYVY73idmbl39dQIkioofpgcmUMEw1uDrzQ7RiczD7IAOQBSnLJSIyGTqaS+V+SR+ZEUKChyFM6IjINI2CXBumVVq+kJoQZZcMYG5d3d8eACxruY+Z/XTCsb8b9+YtB7riObvOmZ7mD+DBMmKZUGUwsNrkzPROIR1vpkuV62+GTjAqymiQT5taU1a4byyyNWMkN6A2zCCAJL6iOr043LckyK+m41jBVJU7aqvxdfR5YfcIhjiuHCJ+qmBv9vDNY9aQphJkw09JUmoKI+0Mus7G+FtnFtGOtOTDvhNIu6uuL1SXjSu8cvZFZJvS+SlHl2e5ehtTGh8WBTPWe3VKGGZwJ4/uiIkqyAaYVSVQwSuklK3dlnUNOyl40tBQmhgUiEUg1s0SYYMXpCFPBZ4m/uXIvLIJiX4kh3C8m5GTqz6QshNSgbp26ujKbYWJuwfXlY2Y5u3SLESadSCIr/mK5NlI+Uv+iNzID9oqxwZfhak+ZYS82+Uo0EYstEcUQcaLNKYkjsIQfmNZXQ+Bk4THWj/Gb18p4VBa1wWKZXA40DaR8hBY4NAX2HIK9mnt4gCSgthUq/qRBeP1LCccD+iEpC2HGBprcTbGB3SW3nclt18k+GtqeYbo9m9slhazkeqP2zU5RkSWaWLR+RT90cmjiQE2bGedsHGzsiqrrgJ2bXqquyvLsfWls0GqF/fJKcsOkYIlmIjUmONrk+C+3O1o31kmYtfx8U8QY4bl1UkbrkvSFsBp0AiEGZlbZtdB69r6mMuPYvYeFoUkhyajOdqbgQcdm3RYdsFwVOVMwaKnLTeJDvz9MyoxaGD9Yc+CmyUGBD4dT8ybJZfFDiLDW6FaJaZLxl14zcT5WMNY9f3JE47FTZ4e9FZgMWueEqgwtFKYEc6RMoeVuw/4TtH53t8X66wOagS2EGRsc4x1vr2VwXxK2stMRMwYtylX/ohEzzNlO13zTulZ2r2GsmcWW+BqZUFvTXzg+LC/63N3TISe6go6DZ8Mpp7zxlax80jrVu0h+SKP1eDbgGZEop9FuNg4WH423wolZQI5kVUT+0FU1PIGcaOqeAS+EYPLSbJmJzqyVoMUJ25Oip/wWTHGAVgU5zG/Uy5seyxHDEjNsWEJnF7AQJH7lsQYKPD2uK3YedRRyYwXb5N2+uvwvf20Z09gyZHhj07qc7FwGyrWZHc3Jzm7ncSvs2cPphsVfmdwMB2N7tOr/wsbGqcP6yf8Okgfj1IMQSiGvc09z6dtslz6xwaoxQePDgqbRDRtZOcncS1hK7GC5q62D3XfKik9oZGXTjcY4npgTKKtOhQqbwXIwmUHD7AJ8N72RpVtawy8JVH0x80wYrmCWCWbAi++cBhPdqQP8zuML8+cRdqytOM9mwFEPQij1+E51PH0D09e3YsXI105rCpNXsSgxlVwyS2mXLt3eRl9iwZzYOFBXLDjYcwVGlw7BsSSPzTmdJE/9kFPdoo7OyeiuHwVheFDWVRYcFRtUyCGukvorI/FihX5LPQihPIbOiURTMeNgGbF+SlRNYasbMVbFBUqP39ur9lVfeaBrvfU4fbaHXdxF2KQvDqs0nbgcM845qDaT4TbQOm5a3Janxch/krGxLmK+kKoo3TWLo+4TZYR6EEIJWDsPBqa/To8EC+2ikdI7k6vm8blxzCbFIpnvDomPTpfVIxMm00kNniQMMFnvD7kdaN5VzwPT3VN+asOqiZTM00H6o2eCqKOxEyLzZo2aNzFP4XpBUafmDHW9stDxQKQehDBjDZhHZm5xLpuufOcomQaZFJJfZnJ9G3LzmSJdcMpCJ99xMEzH0jCxqfgYU0gmrS+nPF+n0erzw2SgytrDOnR296zcdRTnpP1MFyZKvDjUfubSe5uhKRSUtGrmpoFInQhhQfL7yd8ypYx8kSqR7uO6447W/cqtGimG5O5JtI3VxlhpW1pPQBelbowVRlp05r+d6UTS5kOnvOqDk6WgBA5C6lkIM2GWTOL3fRwYnDDhI3iJnheS8r9LIF5S0rDyyF/57WurWGqEUyG1jro0nuKHJZSheWbDiTO5pm3UPKTOhRC2GRvFciReCRYBk8tMXtOnf3s68M2UlT4WjWSr6R4QOnn6T2EG37mwc5lOl8/mkW86xKgJW+/Qpan7A3hqR50LYSb3MWaJNzCPQLRE1jQJp84GDTsqq68rCB2/JrfPovb4szk8Pf7MydZRCrpwYTcyGw4LJmSV+Q+VFXl6yqX+hRCwmYWprn63XKSmodb9UdhdwuTWHH1XPXCPg2WBzCLAvzxMt12VtqUb9p/gcwfKKjj2VMygEEJJ49CF9rVGun0X7ICUIEzONLlPUPyObVWoBxu9sZJDHKTMTbtsdFbt5Do5ZdluyvD5nLMGM4NCCOWOlNZ95wHp2F1ryZcYg25Ezb5gl6om2VwnKXWStMD6Y3EdMQkOa6bTJsdTUwaFELKRhLFJm+6+mrFoW1CsZGwfKndfokglh1N9u37/cWncasIeAtIBmUltkuPKt7BLCFsSXzQ87pNJPVUyKIRQHqiSoDukJB2d3UPHzfnmQ/NilgJVjDzTK/9pge1h1wljfaQZm8LGahKmiTKRTfLI9QM3r1b9iz01ZVAIIZPFTKWN9/o5Ynw6bf8zNhouhbPSUoCdyxmlYCc46XMjdR6mBk9c8BRjUAjh5oPtQ0Y0FuxOWwdIB1cndZYwMIixeFu2SwX74rDzYn53VumaI80jPbVmUAhhxrYDq1cLRx7JKE+G0lxpi6dk6ctIq8Ulu6S+od3WPRPp811QpD21YLAIYR3DqIMp8sRcWdnEKcW2qA9Ma+HDzL9wT87DMKg1fGXcHJ+wdt7wQjjgkcr0rYcKJFuzPzLG0fCxVnTk3DJlFd2q+ZUl0Br02uipNV4IBzx80A3GvrDxrkZSWEUbZxzChI/adbLqPOcfL4QDHnmArqx1GhbUGtUPbueRDm7hWFioN7bnfOKFcMAjqTkFHza6qbX96w/O1Rlt586du2pCtnt/4o/a81SAF8IBDyuVTDkPrMaa+ez87fc1bNxZ42weTxy8EA54pOOju8MzQPBCOODp6um9afLKsapHk2dg4YXQ40kZL4QeT8p4IfR4UsYLoceTMl4IPZ6U8ULo8aSMF0KPJ2W8EHo8KeOF0ONJGS+EHk/KeCH0eFLGC6HHkzJeCD2elPFC6PGkjBdCjydlvBB6PCnjhdDjSZn/B+bS1K85U3J8AAAAAElFTkSuQmCC;dashed=1;imageBorder=#000000;" vertex="1" parent="1">
          <mxGeometry x="240" y="145" width="155" height="51.66" as="geometry" />
        </mxCell>
        <mxCell id="5EDnqL9Ju0ff3urhfnd_-32" value="" style="group" vertex="1" connectable="0" parent="1">
          <mxGeometry x="80" y="280" width="400" height="30" as="geometry" />
        </mxCell>
        <mxCell id="5EDnqL9Ju0ff3urhfnd_-30" value="" style="group" vertex="1" connectable="0" parent="5EDnqL9Ju0ff3urhfnd_-32">
          <mxGeometry width="400" height="30" as="geometry" />
        </mxCell>
        <mxCell id="5EDnqL9Ju0ff3urhfnd_-7" value="" style="group" vertex="1" connectable="0" parent="5EDnqL9Ju0ff3urhfnd_-30">
          <mxGeometry width="400" height="30" as="geometry" />
        </mxCell>
        <mxCell id="5EDnqL9Ju0ff3urhfnd_-1" value="" style="rounded=0;whiteSpace=wrap;html=1;fillColor=#e51400;strokeColor=#B20000;fontColor=#ffffff;" vertex="1" parent="5EDnqL9Ju0ff3urhfnd_-7">
          <mxGeometry width="80" height="30" as="geometry" />
        </mxCell>
        <mxCell id="5EDnqL9Ju0ff3urhfnd_-2" value="" style="rounded=0;whiteSpace=wrap;html=1;fillColor=#e51400;strokeColor=#B20000;fontColor=#ffffff;" vertex="1" parent="5EDnqL9Ju0ff3urhfnd_-7">
          <mxGeometry x="80" width="80" height="30" as="geometry" />
        </mxCell>
        <mxCell id="5EDnqL9Ju0ff3urhfnd_-3" value="" style="rounded=0;whiteSpace=wrap;html=1;fillColor=#e51400;strokeColor=#B20000;fontColor=#ffffff;" vertex="1" parent="5EDnqL9Ju0ff3urhfnd_-7">
          <mxGeometry x="160" width="80" height="30" as="geometry" />
        </mxCell>
        <mxCell id="5EDnqL9Ju0ff3urhfnd_-4" value="" style="rounded=0;whiteSpace=wrap;html=1;fillColor=#e51400;strokeColor=#B20000;fontColor=#ffffff;" vertex="1" parent="5EDnqL9Ju0ff3urhfnd_-7">
          <mxGeometry x="240" width="80" height="30" as="geometry" />
        </mxCell>
        <mxCell id="5EDnqL9Ju0ff3urhfnd_-5" value="" style="rounded=0;whiteSpace=wrap;html=1;fillColor=#eeeeee;strokeColor=#36393d;" vertex="1" parent="5EDnqL9Ju0ff3urhfnd_-7">
          <mxGeometry x="320" width="80" height="30" as="geometry" />
        </mxCell>
        <mxCell id="5EDnqL9Ju0ff3urhfnd_-34" value="" style="endArrow=none;html=1;fillColor=#e51400;strokeColor=#B20000;strokeWidth=3;" edge="1" parent="1">
          <mxGeometry width="50" height="50" relative="1" as="geometry">
            <mxPoint x="480" y="280" as="sourcePoint" />
            <mxPoint x="480" y="185" as="targetPoint" />
          </mxGeometry>
        </mxCell>
        <mxCell id="5EDnqL9Ju0ff3urhfnd_-37" value="&lt;font style=&quot;font-size: 14px&quot; color=&quot;#ff3333&quot;&gt;&lt;b&gt;Seizure&amp;nbsp;&lt;br&gt;Onset&lt;/b&gt;&lt;/font&gt;" style="text;html=1;align=center;verticalAlign=middle;resizable=0;points=[];autosize=1;" vertex="1" parent="1">
          <mxGeometry x="445" y="144.99999999999997" width="70" height="40" as="geometry" />
        </mxCell>
      </root>
    </mxGraphModel>
  </diagram>
</mxfile>
